<svg width="128" height="128" xmlns="http://www.w3.org/2000/svg">

 <g>
  <title>background</title>
  <rect fill="none" id="canvas_background" height="402" width="582" y="-1" x="-1"/>
 </g>
 <g>
  <title>Layer 1</title>
  <path id="svg_3" fill="#add8e6" d="m77.07959,42.5c-0.52979,0 -1.03955,-0.20996 -1.40967,-0.59033c-0.37988,-0.36963 -0.59033,-0.87988 -0.59033,-1.40967c0,-0.53027 0.21045,-1.04004 0.59033,-1.41016c0.73975,-0.75 2.08008,-0.75 2.81983,0c0.37988,0.37012 0.58984,0.87989 0.58984,1.41016c0,0.52979 -0.20996,1.04004 -0.58984,1.40967c-0.37012,0.38037 -0.87989,0.59033 -1.41016,0.59033z"/>
  <path id="svg_5" fill="#add8e6" d="m84.0498,42.5c-0.52978,0 -1.04003,-0.20996 -1.41015,-0.59033c-0.37988,-0.36963 -0.58985,-0.87988 -0.58985,-1.40967c0,-0.53027 0.20997,-1.04004 0.58985,-1.41016c0.74023,-0.75 2.08008,-0.75 2.82031,0c0.37988,0.37012 0.58984,0.87989 0.58984,1.41016c0,0.52979 -0.20996,1.04004 -0.58984,1.40967c-0.37012,0.38037 -0.88037,0.59033 -1.41016,0.59033z"/>
  <path id="svg_7" fill="#add8e6" d="m83.06006,48.5c-0.53027,0 -1.04004,-0.20996 -1.42041,-0.58008c-0.36963,-0.37988 -0.58985,-0.89013 -0.58985,-1.41992c0,-0.53027 0.22022,-1.04004 0.58985,-1.42041c0.75,-0.73975 2.08008,-0.73975 2.83008,0c0.37011,0.38037 0.59033,0.89014 0.59033,1.42041c0,0.52979 -0.22022,1.04004 -0.59033,1.41992c-0.37989,0.37012 -0.89014,0.58008 -1.40967,0.58008z"/>
  <path id="svg_9" fill="#add8e6" d="m70.10986,42.5c-0.53027,0 -1.04004,-0.20996 -1.41015,-0.59033c-0.37989,-0.36963 -0.58985,-0.87988 -0.58985,-1.40967c0,-0.53027 0.20996,-1.04004 0.58985,-1.41016c0.74023,-0.75 2.07031,-0.75 2.82031,-0.01025c0.37988,0.38037 0.58984,0.90039 0.58984,1.42041s-0.20996,1.04004 -0.58007,1.40967c-0.37989,0.38037 -0.89014,0.59033 -1.41993,0.59033z"/>
  <path id="svg_11" fill="#add8e6" d="m64.02979,42.5c-0.52002,0 -1.04004,-0.20996 -1.41016,-0.59033c-0.36963,-0.36963 -0.58984,-0.87988 -0.58984,-1.40967c0,-0.53027 0.22021,-1.04004 0.58984,-1.41016c0.74023,-0.75 2.08008,-0.75 2.83008,0c0.37011,0.37012 0.58008,0.87989 0.58008,1.41016c0,0.52979 -0.20997,1.04004 -0.58008,1.40967c-0.37989,0.38037 -0.88965,0.59033 -1.41992,0.59033z"/>
  <path id="svg_13" fill="#add8e6" d="m82.06006,54.5c-0.53027,0 -1.04004,-0.20996 -1.41016,-0.59033c-0.37988,-0.36963 -0.58984,-0.87988 -0.58984,-1.40967c0,-0.53027 0.20996,-1.04004 0.58984,-1.42041c0.73975,-0.73975 2.08008,-0.73975 2.81983,0c0.37988,0.38037 0.59033,0.89014 0.59033,1.42041c0,0.52979 -0.21045,1.04004 -0.59033,1.40967c-0.37012,0.38037 -0.89014,0.59033 -1.40967,0.59033z"/>
  <path id="svg_15" fill="#add8e6" d="m46.354,89.5c-3.98388,0 -7.22461,-3.25098 -7.22461,-7.24609c0,-3.9961 3.24073,-7.24707 7.22461,-7.24707c3.9834,0 7.22413,3.25097 7.22413,7.24707c0,3.99511 -3.24073,7.24609 -7.22413,7.24609zm0,-10.49316c-1.77783,0 -3.22461,1.45703 -3.22461,3.24707s1.44678,3.24609 3.22461,3.24609s3.22413,-1.45605 3.22413,-3.24609s-1.44629,-3.24707 -3.22413,-3.24707z"/>
  <path id="svg_17" fill="#add8e6" d="m72.73096,89.5c-3.9834,0 -7.22412,-3.25098 -7.22412,-7.24609c0,-3.9961 3.24072,-7.24707 7.22412,-7.24707c3.98388,0 7.22461,3.25097 7.22461,7.24707c0,3.99511 -3.24073,7.24609 -7.22461,7.24609zm0,-10.49316c-1.77783,0 -3.22412,1.45703 -3.22412,3.24707s1.44629,3.24609 3.22412,3.24609s3.22461,-1.45605 3.22461,-3.24609s-1.44678,-3.24707 -3.22461,-3.24707z"/>
  <path id="svg_19" fill="#add8e6" d="m85.44141,78c-0.0083,0 -0.01612,0 -0.02393,0l-50.16113,-0.45947c-0.98194,-0.01172 -1.81006,-0.67017 -1.95459,-1.64087l-5.16797,-34.63684c-0.08594,-0.57569 0.08301,-1.14411 0.46338,-1.58454c0.37988,-0.44091 0.93262,-0.67828 1.51465,-0.67828l27.88818,0c1.10449,0 2,0.89551 2,2s-0.89551,2 -2,2l-25.56787,0l4.57471,30.68945l46.81738,0.54785l7.12842,-33.65185c0.1958,-0.92432 1.01172,-1.58545 1.95654,-1.58545l5.09082,0c1.10449,0 2,0.89551 2,2s-0.89551,2 -2,2l-3.47021,0l-7.13233,33.54248c-0.1958,0.92578 -1.01269,1.45752 -1.95605,1.45752z"/>
 </g>
</svg>